<svg width="262" height="126" viewBox="0 0 262 126" fill="none" xmlns="http://www.w3.org/2000/svg">
<path fill-rule="evenodd" clip-rule="evenodd" d="M223.068 47.3748L213.977 42.1134C213.404 41.7813 212.907 41.2998 212.552 40.6836C212.196 40.0674 212.029 39.3939 212.029 38.73V27.8346C212.029 25.6507 212.579 23.4388 213.746 21.4133C214.913 19.3878 216.55 17.8028 218.434 16.7129L244.586 1.57256C245.236 1.19712 245.974 1 246.725 1C247.449 1 248.184 1.18382 248.856 1.57256L261.842 9.09157C261.169 8.70283 260.436 8.5167 259.71 8.5167C258.961 8.5167 258.223 8.71613 257.573 9.09157L231.421 24.2296C229.536 25.3195 227.9 26.9045 226.733 28.93C225.565 30.9558 225.017 33.1674 225.017 35.3513V46.2476C225.017 46.6967 224.784 47.1343 224.367 47.3748C223.951 47.6161 223.456 47.5997 223.068 47.3748ZM260.729 11.024C260.414 10.8416 260.071 10.7494 259.71 10.7494C259.352 10.7494 258.996 10.8439 258.687 11.024L248.764 16.7681L259.803 23.1576C260.191 23.3824 260.686 23.3989 261.101 23.1576C261.518 22.9171 261.751 22.4795 261.751 22.0304V12.7995C261.751 12.07 261.36 11.3887 260.729 11.024ZM259.895 30.6532L252.65 26.4582L250.712 25.3374C250.324 25.1125 249.83 25.0969 249.413 25.3374C248.997 25.5779 248.764 26.0155 248.764 26.4646V36.0713C248.764 37.2713 248.56 38.4638 248.165 39.591C247.948 40.2084 247.674 40.8058 247.346 41.3769C246.419 42.9874 245.08 44.3305 243.472 45.2605L226.745 54.9426C227.083 55.5299 227.243 56.1701 227.243 56.8031V66.143C227.243 66.8722 227.634 67.5511 228.262 67.9156C228.579 68.0979 228.922 68.1901 229.281 68.1901C229.641 68.1901 229.995 68.0956 230.305 67.9156L256.46 52.7775C258.067 51.8474 259.405 50.5046 260.332 48.8939C261.259 47.2826 261.75 45.4487 261.75 43.5882V35.6022V33.8744C261.75 33.242 261.592 32.6012 261.254 32.0148C260.916 31.4275 260.442 30.9691 259.895 30.6532ZM200.092 100.733C203.505 99.7177 206.736 98.9676 211.932 97.9535C214.105 97.9193 217.96 101.25 216.269 101.832C210.021 102.166 203.633 103.837 198.832 105.578C198.434 107.081 198.028 108.584 197.615 110.083C197.135 111.829 196.629 113.58 196.054 115.3C192.83 124.916 188.466 125.679 185.164 124.738C178.54 122.85 179.511 111.241 187.314 106.462C189.666 105.02 191.847 103.859 194.16 102.861C194.474 101.686 194.795 100.482 195.113 99.2749C193.974 100.251 192.672 100.722 191.013 100.777C183.049 101.042 182.095 94.8227 182.231 90.9191C179.496 95.3739 175.573 99.3431 169.507 100.296C164.974 101.008 162.174 98.8783 161.633 96.0707C156.296 102.329 145.525 104.297 149.027 89.6729C149.412 88.0671 149.956 85.9645 150.494 83.8891L150.494 83.8884L150.494 83.8875C150.793 82.7358 151.089 81.5925 151.354 80.5472C152.351 76.6164 152.903 74.3285 151.819 73.7845C149.227 72.4859 143.841 76.6846 141.785 83.8886C141.623 84.6213 141.463 85.3551 141.307 86.0843C140.705 88.9102 140.164 91.3892 139.712 93.463L139.712 93.4639L139.711 93.4668L139.709 93.4783C139.161 95.9937 138.743 97.9117 138.502 99.1283C138.187 100.434 132.039 102.582 132.463 100.521C132.634 99.7221 132.886 98.4616 133.201 96.8902L133.202 96.8861L133.203 96.8812C133.45 95.6474 133.735 94.2224 134.049 92.679C128.734 99.4694 122.465 102.751 117.081 100.03C115.04 98.9983 113.633 97.3933 112.735 95.4577C107.327 98.6587 100.174 102.078 95.912 100.563C93.6931 99.7743 92.1927 98.3144 91.2486 96.4534C88.6415 98.265 86.0918 99.8289 84.3503 100.356C75.4693 103.042 71.0466 94.1843 75.4104 86.8647C76.1513 85.6221 78.1619 82.0261 79.7634 79.1617L79.7648 79.1593L79.7659 79.1574L79.766 79.1572L79.7661 79.157L79.7671 79.1552L79.7672 79.1549L79.7676 79.1543L79.7681 79.1534L79.7687 79.1523L79.7695 79.1509L79.7697 79.1505L79.7703 79.1495L79.7719 79.1466C80.9294 77.0764 81.8712 75.3919 81.9618 75.2612C78.667 76.6326 75.2743 76.8699 72.9259 76.767C71.2788 83.214 65.369 101.16 51.3199 100.846C48.2145 100.777 40.2689 97.1211 43.6303 83.4493C44.8948 78.304 48.7275 67.5563 58.1654 69.1202C59.8595 69.4009 64.4558 71.1743 64.4774 77.4606C64.4194 78.7095 59.5227 80.2645 59.4564 78.8656C59.4433 78.6854 59.4366 78.4656 59.4291 78.2192C59.3819 76.6741 59.303 74.0853 57.4185 73.6912C51.717 72.501 49.5303 81.9752 49.0876 84.4499C47.6455 92.499 50.3143 95.1768 52.4569 95.4927C55.0995 95.8814 58.0688 94.9164 61.4749 91.2405C65.3774 87.0303 67.263 82.9117 69.2461 75.6271C68.8833 75.1704 68.689 74.5155 68.866 73.5602C69.3329 71.0437 73.3873 70.9321 73.7192 73.264C77.2231 73.5802 81.6571 71.6303 84.5781 70.3458C86.1642 69.6483 87.3042 69.147 87.6068 69.3113C88.2237 69.6471 89.829 72.5666 89.2549 73.5363C88.7238 74.434 87.4635 76.7442 86.0044 79.4189L86.0035 79.4207L86.0019 79.4235L86.0019 79.4236L86.0017 79.424L86.0015 79.4244L86.0011 79.4252L85.9986 79.4297L85.998 79.4309L85.9965 79.4335C84.1286 82.8576 81.9367 86.8753 80.5324 89.2911C77.6629 94.2268 80.5269 97.465 84.5493 95.6629C86.1022 94.9687 88.0209 93.777 90.0637 92.3377C89.3045 86.015 92.0823 77.8994 95.1389 73.5634C97.8251 69.7549 101.902 68.5558 106.222 69.2887C109.402 69.8275 110.702 73.1175 109.861 76.3254C107.892 83.8406 101.93 88.6951 98.0278 91.4264L97.9333 91.4989C97.2838 91.9975 96.5755 92.5413 95.8287 93.1074C96.3697 94.9684 97.4568 96.2048 99.2438 96.2702C103.121 96.4109 107.613 94.0984 111.622 91.5018C110.814 85.3805 113.255 77.8682 116.707 73.5634C119.548 70.022 122.962 68.6217 127.525 69.2887C130.716 69.7549 131.789 72.8469 130.964 76.0586C129.105 83.2958 123.31 88.3364 119.512 91.0717C119.359 91.1888 119.165 91.3241 118.937 91.4801C118.383 91.8663 117.887 92.1966 117.467 92.4712C117.371 92.5354 117.268 92.6036 117.167 92.6701C117.646 94.6132 118.659 95.9716 120.346 96.2028C125.744 96.943 133.346 90.8428 136.693 80.4749C137.223 78.2067 137.713 76.1969 138.133 74.4777L138.133 74.4759C138.507 72.9413 138.825 71.6383 139.064 70.5899C139.451 68.7396 145.4 67.541 145.263 69.1555C145.086 69.9194 144.844 70.9249 144.558 72.1059C147.985 69.7549 152.148 68.0335 155.961 69.8838C159.265 71.4865 158.665 74.951 157.806 78.5052C157.17 81.1368 155.41 88.1708 154.737 90.794C152.77 98.4526 156.011 96.865 161.923 89.8156C162.984 78.7095 165.252 70.3515 169.144 59.8379C174.02 46.6672 184.478 47.9187 183.715 57.1901C182.843 67.8113 175.981 78.2715 173.778 81.6292C173.615 81.8777 173.478 82.0874 173.37 82.2553C171.842 84.6395 169.63 87.356 167.155 90.1391C166.969 93.1365 167.326 95.3499 168.591 95.9809C171.226 97.2953 181.083 91.3059 184.975 76.695C185.238 75.5866 185.492 74.4545 185.708 73.4678L185.709 73.4613L185.711 73.4529L185.713 73.444L185.715 73.4334L185.718 73.4221C185.718 73.4183 185.719 73.4153 185.72 73.4128L185.72 73.4094L185.722 73.404L185.722 73.4039L185.724 73.3961C186.014 72.0686 186.233 71.0177 186.304 70.6726C187.03 68.2063 192.425 67.7959 192.068 69.1552C192.068 69.1552 189.639 78.8485 188.623 83.1472C188.577 83.3419 188.529 83.5447 188.479 83.7544L188.475 83.7713L188.474 83.7748C187.406 88.2452 185.585 95.8639 190.636 96.3358C193.686 96.6213 196.457 92.8981 199.067 83.1068C199.922 79.4182 200.777 75.6739 201.385 73.003C201.617 71.9399 201.792 71.1022 201.867 70.7427L201.882 70.6726C202.607 68.2063 208.139 67.7959 207.781 69.1552C207.781 69.1552 207.373 70.7841 206.822 73.003C206.497 74.4025 206.174 75.7834 206.037 76.3412C205.296 79.3595 204.572 82.3816 203.849 85.4037L203.848 85.4069C202.832 89.6484 201.816 93.8897 200.755 98.1202C200.535 98.9916 200.314 99.8628 200.092 100.733ZM105.026 76.3508C106.388 72.0194 101.935 72.7524 99.4872 76.1545C97.3524 79.1188 95.7788 84.0019 95.4648 88.2159C96.4455 87.4167 97.4069 86.6104 98.3271 85.817C101.014 83.3741 103.811 80.2119 105.026 76.3508ZM120.988 76.1546C123.424 72.897 127.524 72.1559 126.195 76.3508C124.604 81.37 121.852 83.7464 117.861 87.1425C117.556 87.361 117.241 87.5881 116.915 87.8231C117.275 83.7161 118.823 79.0497 120.988 76.1546ZM178.872 55.2536C176.979 54.5091 175.401 58.0713 173.425 64.1863L173.385 64.3104C172.51 67.0179 170.078 74.5435 168.511 81.6007C176.411 69.9428 181.322 56.2178 178.872 55.2536ZM192.101 110.722L192.048 110.935L191.979 111.214C190.947 115.392 189.523 121.152 186.616 120.32C184.921 119.834 184.367 112.614 191.368 108.927C191.835 108.681 192.292 108.448 192.74 108.223C192.507 109.116 192.292 109.954 192.101 110.722ZM43.1058 68.0505C43.9037 63.1877 42.8169 59.191 39.2899 58.7844C34.715 58.2578 33.0101 65.2374 34.967 71.7807C35.4903 73.5312 35.9995 75.1751 36.4843 76.7406C38.3033 82.6136 39.7801 87.3816 40.3805 92.5261C41.4422 101.62 38.4842 108.714 35.8771 112.777C33.0969 117.109 25.5014 126.814 12.1792 124.761C2.33533 123.245 -3.39333 112.85 2.19057 97.3942C5.14256 89.2179 12.6559 82.5796 13.5377 82.0816C14.5874 81.3018 17.4407 87.3266 16.4952 88.2104C16.4555 88.2438 16.4042 88.2866 16.3423 88.3382L16.3422 88.3382C15.2414 89.2555 10.7696 92.9819 8.2171 97.18C4.7178 102.936 2.11674 117.594 13.9308 118.958C19.2531 119.572 26.7033 116.223 30.7583 108.994C33.0603 104.89 34.8413 99.6703 34.2833 93.0822C33.9113 88.6957 32.1182 82.9391 30.7825 78.6511C30.2801 77.038 29.8423 75.6328 29.5694 74.5866C26.2249 61.761 31.5129 54.3074 38.1612 54.0886C45.9361 53.8328 49.466 58.8474 48.5069 66.1771C48.4227 67.7069 43.2056 69.6393 43.1058 68.0505ZM225.017 58.0916V66.1427C225.017 67.6209 225.782 69.0558 227.147 69.8465L214.163 62.331C212.795 61.5382 212.029 60.102 212.029 58.6242V50.6815C212.029 50.2327 212.263 49.7948 212.678 49.5537C213.095 49.313 213.589 49.3295 213.977 49.5537L223.161 54.8695C223.707 55.1854 224.181 55.6438 224.519 56.2311C224.858 56.8184 225.017 57.4592 225.017 58.0916Z" fill="#7E2BD0"/>
</svg>
